<svg xmlns="http://www.w3.org/2000/svg" viewBox="0 0 48 48">
  
<g transform="matrix(2,0,0,2,0,0)"><g>
    <path d="M16.73,18.29a1,1,0,0,0-.17,2,29.16,29.16,0,0,1,3.77.52.25.25,0,0,1,0,.49A39.87,39.87,0,0,1,12,22a39.87,39.87,0,0,1-8.33-.71.25.25,0,0,1,0-.49,28.86,28.86,0,0,1,3.73-.52,1,1,0,0,0,.91-1.08,1,1,0,0,0-1.08-.91C0,18.9,0,20.4,0,21c0,2.67,8.32,3,12,3s12-.29,12-3C24,20.4,24,18.9,16.73,18.29Z" style="fill: #229387"></path>
    <path d="M12,21.6a1,1,0,0,0,.84-.46c2-3.06,6.52-10.53,6.52-13.78a7.36,7.36,0,0,0-14.72,0c0,3.25,4.56,10.72,6.52,13.78A1,1,0,0,0,12,21.6ZM8.5,7A3.5,3.5,0,1,1,12,10.5,3.5,3.5,0,0,1,8.5,7Z" style="fill: #229387"></path>
  </g></g></svg>
