<svg xmlns="http://www.w3.org/2000/svg" viewBox="0 0 48 48">
  
<g transform="matrix(2,0,0,2,0,0)"><g>
    <path d="M17.51,18.5a1,1,0,0,0-1,1V20a.5.5,0,0,1-.5.5h-5.5A.5.5,0,0,1,10,20V4a.5.5,0,0,1,.5-.5H16a.5.5,0,0,1,.5.5V5a1,1,0,0,0,2,0V2.5a1,1,0,0,0-1-1H10V.5A.51.51,0,0,0,9.82.11.53.53,0,0,0,9.4,0L.4,2A.5.5,0,0,0,0,2.5v19A.5.5,0,0,0,.4,22l9,2A.51.51,0,0,0,10,23.5v-1h7.5a1,1,0,0,0,1-1v-2A1,1,0,0,0,17.51,18.5Zm-10-6A1.5,1.5,0,1,1,6,11,1.5,1.5,0,0,1,7.51,12.5Z" style="fill: #229387"></path>
    <path d="M22.49,11H18.37V9.25a1,1,0,0,0-.53-.88,1,1,0,0,0-1,.05l-4.87,3.25a1,1,0,0,0,0,1.66l4.87,3.25a1,1,0,0,0,1.56-.83V14h4.12a1.5,1.5,0,0,0,0-3Z" style="fill: #229387"></path>
  </g></g></svg>
